<svg xmlns="http://www.w3.org/2000/svg" viewBox="0 0 24 16" role="img" aria-label="中国">
  <rect width="24" height="16" fill="#de2910" />
  <polygon points="3 2 4 5 7 5 4.5 6.8 5.6 9.6 3 7.9 0.4 9.6 1.5 6.8 -1 5 2 5" fill="#ffde00" />
  <polygon points="7.2 1.4 7.8 2.5 9 2.3 8.3 3.4 9.1 4.3 7.8 4 7.2 5.1 6.9 3.8 5.7 3.9 6.7 3.1 6.2 1.9" fill="#ffde00" />
  <polygon points="9 3.7 9.6 4.9 10.9 4.9 9.8 5.7 10.2 7 9 6.2 7.8 7 8.2 5.7 7.1 4.9 8.4 4.9" fill="#ffde00" />
  <polygon points="8.6 6.5 9.1 7.7 10.4 7.8 9.3 8.5 9.7 9.8 8.5 9.1 7.4 9.8 7.7 8.5 6.6 7.8 7.9 7.7" fill="#ffde00" />
  <polygon points="6.5 8.3 6.9 9.6 8.2 9.7 7.1 10.4 7.4 11.8 6.3 11 5.1 11.8 5.5 10.4 4.4 9.6 5.7 9.6" fill="#ffde00" />
</svg>
