<svg xmlns="http://www.w3.org/2000/svg" viewBox="0 0 24 16" role="img" aria-label="美国">
  <rect width="24" height="16" fill="#b22234" />
  <g fill="#fff">
    <rect y="2" width="24" height="1" />
    <rect y="4" width="24" height="1" />
    <rect y="6" width="24" height="1" />
    <rect y="8" width="24" height="1" />
    <rect y="10" width="24" height="1" />
    <rect y="12" width="24" height="1" />
    <rect y="14" width="24" height="1" />
  </g>
  <rect width="10" height="7" fill="#3c3b6e" />
  <g fill="#fff" transform="scale(0.04)">
    <g id="s">
      <polygon points="35 4 43 26 66 26 47 39 55 61 35 48 15 61 23 39 4 26 27 26" />
    </g>
    <use href="#s" x="120" />
    <use href="#s" x="240" />
    <use href="#s" x="360" />
    <use href="#s" x="60" y="80" />
    <use href="#s" x="180" y="80" />
    <use href="#s" x="300" y="80" />
    <use href="#s" x="420" y="80" />
    <use href="#s" x="0" y="160" />
    <use href="#s" x="120" y="160" />
    <use href="#s" x="240" y="160" />
<svg xmlns="http://www.w3.org/2000/svg" viewBox="0 0 48 32" role="img" aria-label="美国国旗图标">
  <rect width="48" height="32" fill="#b22234" />
  <g fill="#fff">
    <rect y="2" width="48" height="2" />
    <rect y="6" width="48" height="2" />
    <rect y="10" width="48" height="2" />
    <rect y="14" width="48" height="2" />
    <rect y="18" width="48" height="2" />
    <rect y="22" width="48" height="2" />
    <rect y="26" width="48" height="2" />
  </g>
  <rect width="20" height="14" fill="#3c3b6e" />
  <g fill="#fff">
    <circle cx="3" cy="3" r="1" />
    <circle cx="7" cy="3" r="1" />
    <circle cx="11" cy="3" r="1" />
    <circle cx="15" cy="3" r="1" />
    <circle cx="19" cy="3" r="1" />
    <circle cx="5" cy="6" r="1" />
    <circle cx="9" cy="6" r="1" />
    <circle cx="13" cy="6" r="1" />
    <circle cx="17" cy="6" r="1" />
    <circle cx="3" cy="9" r="1" />
    <circle cx="7" cy="9" r="1" />
    <circle cx="11" cy="9" r="1" />
    <circle cx="15" cy="9" r="1" />
    <circle cx="19" cy="9" r="1" />
    <circle cx="5" cy="12" r="1" />
    <circle cx="9" cy="12" r="1" />
    <circle cx="13" cy="12" r="1" />
    <circle cx="17" cy="12" r="1" />
  </g>
</svg>
